<?xml version="1.0" encoding="iso-8859-1"?>
<!-- Generator: Adobe Illustrator 19.0.0, SVG Export Plug-In . SVG Version: 6.00 Build 0)  -->
<svg version="1.1" id="Layer_1" xmlns="http://www.w3.org/2000/svg" xmlns:xlink="http://www.w3.org/1999/xlink" x="0px" y="0px"
	 viewBox="0 0 512 512" style="enable-background:new 0 0 512 512;" xml:space="preserve">
<path style="fill:#6D6E71;" d="M62.942,304.924h260.231c28.92,0,52.364,23.444,52.364,52.364v1.058
	c0,28.92-23.444,52.364-52.364,52.364H62.942c-28.92,0-52.364-23.444-52.364-52.364v-1.058
	C10.579,328.368,34.023,304.924,62.942,304.924z"/>
<polygon style="fill:#FFCD02;" points="341.337,204.428 320,304.924 66.116,304.924 51.306,262.609 29.62,262.609 29.62,204.428 
	99.438,204.428 124.826,223.469 124.826,262.609 182.659,262.609 182.659,204.428 "/>
<path style="fill:#FFA800;" d="M501.421,410.709c-10.197,0-20.393,0-30.59,0c-25.795,0.3-44.659-19.391-43.46-43.46
	c0-6.288,0-12.577,0-18.865c-1.201-24.068,17.665-43.761,43.46-43.46c10.197,0,20.393,0,30.59,0
	C478.507,336.463,478.507,379.17,501.421,410.709z"/>
<polygon style="fill:#ECF0F1;" points="208.809,204.428 182.659,204.428 182.659,262.609 124.826,262.609 124.826,223.469 
	99.438,204.428 42.399,204.428 72.103,101.287 183.897,101.287 "/>
<g>
	<path style="fill:#231F20;" d="M321.744,359.328l-35.216-21.157c-3.351-2.014-7.542-2.014-10.896,0l-29.767,17.884l-29.763-17.884
		c-3.353-2.014-7.544-2.015-10.897,0l-29.765,17.883l-29.762-17.883c-3.353-2.014-7.544-2.014-10.897,0l-29.759,17.883
		l-29.756-17.883c-5.012-3.012-11.507-1.389-14.517,3.618c-3.01,5.007-1.389,11.506,3.618,14.516l35.205,21.157
		c3.353,2.015,7.545,2.015,10.898,0l29.762-17.883l29.762,17.883c3.352,2.014,7.542,2.015,10.897,0l29.765-17.883l29.763,17.883
		c3.351,2.014,7.541,2.015,10.897,0l29.767-17.884l29.769,17.884c1.704,1.025,3.583,1.513,5.437,1.513
		c3.592,0,7.094-1.829,9.078-5.133C328.374,368.835,326.753,362.335,321.744,359.328z"/>
	<path style="fill:#231F20;" d="M509.979,311.142c2.339-3.218,2.673-7.476,0.867-11.021c-1.806-3.545-5.447-5.776-9.425-5.776
		H470.89c-15.527-0.145-29.674,5.587-39.886,16.198c-9.495,9.864-14.505,22.841-14.238,36.695h-31.462
		c-4.316-26.78-25.579-47.959-52.403-52.138l18.784-88.474c0.662-3.122-0.12-6.375-2.128-8.855c-2.009-2.481-5.029-3.92-8.221-3.92
		h-59.243v-54.937l11.757-18.565c3.126-4.936,1.659-11.471-3.277-14.596c-4.936-3.126-11.472-1.658-14.597,3.277l-13.399,21.157
		c-1.073,1.693-1.642,3.656-1.642,5.66v58.005h-43.8l-19.802-81.983h7.889c5.841,0,10.579-4.736,10.579-10.579
		c0-5.843-4.737-10.579-10.579-10.579H50.068c-5.841,0-10.579,4.736-10.579,10.579c0,5.843,4.737,10.579,10.579,10.579h7.98
		l-23.611,81.983H29.62c-5.841,0-10.579,4.736-10.579,10.579v58.182c0,5.842,4.737,10.579,10.579,10.579H43.8l7.772,22.205
		C22.277,300.763,0,326.465,0,357.287v1.058c0,34.707,28.235,62.942,62.942,62.942h260.231c31.286,0,57.304-22.947,62.13-52.893
		h31.462c-0.266,13.856,4.744,26.833,14.241,36.698c10.072,10.462,23.98,16.199,39.237,16.199c0.215,0,0.432-0.001,0.646-0.003
		h30.533c3.979,0,7.62-2.231,9.425-5.776c1.806-3.545,1.471-7.802-0.867-11.021C489.696,376.574,489.696,339.059,509.979,311.142z
		 M80.066,111.866H99.9l-1.487,19.01c-0.456,5.825,3.897,10.916,9.721,11.372c0.281,0.022,0.56,0.033,0.837,0.033
		c5.468,0,10.101-4.21,10.535-9.753l1.616-20.66h54.448l19.802,81.983h-12.712c-5.841,0-10.579,4.736-10.579,10.579v47.603h-36.676
		V223.47c0-0.416-0.024-0.829-0.073-1.238c-0.336-2.858-1.828-5.477-4.158-7.225l-25.388-19.041
		c-1.83-1.373-4.058-2.116-6.347-2.116H56.453L80.066,111.866z M40.198,252.031v-37.025h55.714l18.336,13.752v33.851
		c0,5.842,4.737,10.578,10.579,10.578h57.833c5.841,0,10.579-4.736,10.579-10.579v-47.603h135.039l-6.996,32.948h-43.066
		c-5.841,0-10.579,4.736-10.579,10.579c0,5.843,4.737,10.579,10.579,10.579h38.575l-5.358,25.234H73.621l-12.33-35.231
		c-1.484-4.243-5.489-7.083-9.984-7.083L40.198,252.031L40.198,252.031z M364.959,358.345c0,23.04-18.745,41.785-41.785,41.785
		H62.942c-23.04,0-41.785-18.745-41.785-41.785v-1.058c0-23.04,18.745-41.785,41.785-41.785h260.231
		c23.04,0,41.785,18.745,41.785,41.785V358.345z M482.969,400.13h-12.138c-0.041,0-0.083,0-0.124,0
		c-0.153,0.002-0.304,0.003-0.456,0.003c-9.454,0-17.963-3.44-24.004-9.714c-5.788-6.012-8.739-14.054-8.31-22.645
		c0.01-0.176,0.014-0.35,0.014-0.526v-18.865c0-0.176-0.004-0.351-0.014-0.527c-0.427-8.59,2.523-16.63,8.308-22.642
		c6.04-6.276,14.551-9.716,24.007-9.716c0.151,0,0.304,0.001,0.456,0.003c0.04,0,0.081,0,0.123,0h12.138
		C470.476,342.337,470.476,373.297,482.969,400.13z"/>
	<path style="fill:#231F20;" d="M117.421,168.329v-0.793c0-5.842-4.737-10.579-10.579-10.579c-5.841,0-10.579,4.736-10.579,10.579
		v0.793c0,5.842,4.737,10.579,10.579,10.579C112.684,178.907,117.421,174.171,117.421,168.329z"/>
	<path style="fill:#231F20;" d="M233.785,269.111h1.058c5.841,0,10.579-4.736,10.579-10.578c0-5.843-4.737-10.579-10.579-10.579
		h-1.058c-5.841,0-10.579,4.736-10.579,10.579C223.207,264.375,227.944,269.111,233.785,269.111z"/>
</g>
<g>
</g>
<g>
</g>
<g>
</g>
<g>
</g>
<g>
</g>
<g>
</g>
<g>
</g>
<g>
</g>
<g>
</g>
<g>
</g>
<g>
</g>
<g>
</g>
<g>
</g>
<g>
</g>
<g>
</g>
</svg>
