<?xml version="1.0" encoding="iso-8859-1"?>
<!-- Generator: Adobe Illustrator 19.0.0, SVG Export Plug-In . SVG Version: 6.00 Build 0)  -->
<svg version="1.1" id="Layer_1" xmlns="http://www.w3.org/2000/svg" xmlns:xlink="http://www.w3.org/1999/xlink" x="0px" y="0px"
	 viewBox="0 0 511.999 511.999" style="enable-background:new 0 0 511.999 511.999;" xml:space="preserve">
<polygon style="fill:#FFCD02;" points="294.174,235.027 360.582,178.093 456.003,178.093 456.003,133.296 344.009,133.296 
	223.988,236.191 "/>
<path style="fill:#ECF0F1;" d="M292.877,376.184H57.129c-15.308,0-27.719,12.41-27.719,27.719v0.56
	c0,15.308,12.41,27.719,27.719,27.719h235.748c15.309,0,27.719-12.41,27.719-27.719v-0.56
	C320.595,388.594,308.185,376.184,292.877,376.184z"/>
<rect x="168.921" y="331.391" style="fill:#6D6E71;" width="95.195" height="44.798"/>
<polygon style="fill:#FFCD02;" points="175.003,280.989 175.003,230.592 29.411,230.592 11.199,280.989 11.199,331.386 
	307.984,331.386 307.984,280.989 "/>
<rect x="223.988" y="236.196" style="fill:#6D6E71;" width="83.996" height="44.798"/>
<polygon style="fill:#FFA800;" points="500.801,351.964 456.003,351.964 456.003,110.057 500.801,79.818 "/>
<path style="fill:#6D6E71;" d="M397.019,432.181h59.799c24.29,0,43.981-19.691,43.981-43.981v-36.236h-44.798L397.019,432.181z"/>
<g>
	<path style="fill:#231F20;" d="M72.815,264.31c-5.557,0.799-9.539,5.815-9.539,11.429v10.501c0,5.614,3.981,10.63,9.539,11.429
		c6.923,0.995,12.86-4.349,12.86-11.08v-11.199C85.675,268.659,79.739,263.315,72.815,264.31z"/>
	<path style="fill:#231F20;" d="M116.866,264.31c-5.557,0.799-9.539,5.815-9.539,11.429v10.501c0,5.614,3.981,10.63,9.539,11.429
		c6.923,0.995,12.86-4.349,12.86-11.08v-11.199C129.726,268.659,123.789,263.315,116.866,264.31z"/>
	<path style="fill:#231F20;" d="M508.885,72.052c-3.956-4.037-9.966-4.475-14.351-1.516l-44.798,30.238
		c-3.084,2.082-4.933,5.561-4.933,9.283v12.039H344.009c-2.674,0-5.259,0.956-7.29,2.697L216.698,227.689
		c-2.58,2.212-3.897,5.343-3.902,8.494l-0.008,0.009v33.598h-26.586v-39.198v-29.727c0-2.97-1.18-5.819-3.28-7.92l-16.045-16.045
		c-3.969-3.969-10.331-4.702-14.826-1.337c-5.599,4.192-6.019,12.17-1.26,16.929l13.013,13.011v13.888H29.411
		c-4.717,0-8.929,2.957-10.533,7.393L0.666,277.181C0.225,278.404,0,279.692,0,280.989v50.397c0,6.185,5.014,11.199,11.199,11.199
		h146.525v22.399H57.129c-21.494,0-38.918,17.424-38.918,38.918v0.56c0,21.494,17.424,38.918,38.918,38.918h235.748
		c21.494,0,38.918-17.424,38.918-38.918v-0.56c0-21.494-17.424-38.918-38.918-38.918h-17.56v-22.399h32.666
		c6.185,0,11.199-5.014,11.199-11.199v-95.195c0-0.024,0-0.046,0-0.069c-0.029-4.766,1.822-9.347,5.441-12.45l40.103-34.38h80.077
		v158.997l-56.808,77.258c-3.031,4.122-2.94,9.887,0.55,13.966c2.161,2.527,5.405,3.868,8.729,3.868h59.544
		c30.476,0,55.181-24.706,55.181-55.181V80.027C512,77.072,510.953,74.163,508.885,72.052z M467.202,116.009l22.399-15.119v239.875
		h-22.399V116.009z M235.188,247.391h61.597v22.399h-61.597V247.391z M309.396,403.902v0.56c0,9.123-7.396,16.519-16.519,16.519
		H57.129c-9.123,0-16.519-7.396-16.519-16.519v-0.56c0-9.123,7.396-16.519,16.519-16.519h235.748
		C302,387.383,309.396,394.779,309.396,403.902z M252.92,364.984h-72.796v-22.399h72.796V364.984z M296.784,320.187H22.399V282.95
		l14.874-41.159h126.531v39.198c0,6.185,5.014,11.199,11.199,11.199h121.781V320.187z M360.582,166.894
		c-2.674,0-5.259,0.956-7.29,2.697l-64.623,55.401h-34.412l93.894-80.497h96.651v22.399L360.582,166.894L360.582,166.894z
		 M489.601,388.2c0,18.105-14.677,32.782-32.782,32.782h-37.664l42.514-57.818h27.931V388.2z"/>
</g>
<g>
</g>
<g>
</g>
<g>
</g>
<g>
</g>
<g>
</g>
<g>
</g>
<g>
</g>
<g>
</g>
<g>
</g>
<g>
</g>
<g>
</g>
<g>
</g>
<g>
</g>
<g>
</g>
<g>
</g>
</svg>
